<svg xmlns="http://www.w3.org/2000/svg" viewBox="0 0 783.95 189.5"><defs><style>.cls-1{fill:#c190f4;}</style></defs><g id="Layer_2" data-name="Layer 2"><g id="Layer_1-2" data-name="Layer 1"><path class="cls-1" d="M23.42,173.29.24,71.06a11.4,11.4,0,0,1,2.24-9.47,10.41,10.41,0,0,1,8.73-4.24H23.67a15.58,15.58,0,0,1,10.72,4,16.6,16.6,0,0,1,5.49,10l12.47,83a.22.22,0,0,0,.25.25c.16,0,.24-.08.24-.25l13.72-83a16.55,16.55,0,0,1,5.49-10,15.58,15.58,0,0,1,10.72-4h18.45a16,16,0,0,1,10.84,4,16.32,16.32,0,0,1,5.61,10l13.47,83a.22.22,0,0,0,.25.25.22.22,0,0,0,.25-.25l12.46-83a16.65,16.65,0,0,1,5.49-10,15.58,15.58,0,0,1,10.72-4h11.47a10.75,10.75,0,0,1,8.85,4.24,10.55,10.55,0,0,1,2.12,9.47L159.56,173.29a16.38,16.38,0,0,1-6.23,9.85A17.85,17.85,0,0,1,142.11,187H122.66a16.06,16.06,0,0,1-10.85-4A17.57,17.57,0,0,1,106,173L91.74,92.5a.25.25,0,0,0-.5,0L77,173a16.12,16.12,0,0,1-5.73,10,16.54,16.54,0,0,1-11,4H40.88a17.81,17.81,0,0,1-11.22-3.86A16.35,16.35,0,0,1,23.42,173.29Z"/><path class="cls-1" d="M229.34,189.5q-17.21,0-28.3-11.1t-11.1-28.8q0-45.37,67.33-45.38h9c1.5,0,2.24-.66,2.24-2V101q0-9.47-4.86-13.71T247.29,83q-15.21,0-36.4,4.74a11.11,11.11,0,0,1-9.35-2.25A10.26,10.26,0,0,1,197.42,77v-.49a18.36,18.36,0,0,1,3.87-11.35,15.17,15.17,0,0,1,9.85-6.11q21.93-4.23,37.9-4.24,32.66,0,46.25,11.72t13.59,38.9v67.32A14.49,14.49,0,0,1,294.67,187h-9.23a14.14,14.14,0,0,1-10.22-4.11,14.37,14.37,0,0,1-4.49-10.1v-2.74a.23.23,0,0,0-.25-.25c-.34,0-.5.09-.5.25Q254.27,189.49,229.34,189.5Zm27.93-61.84q-30.43,0-30.43,18.7,0,6.73,4,10.6t10.72,3.86q12,0,19.44-7.6t7.48-20.32v-3a2,2,0,0,0-2.24-2.24Z"/><path class="cls-1" d="M375.66,137.14q-26.93-5-38.52-15.46T325.54,94q0-18.45,13.84-28.8t41.77-10.35a213.49,213.49,0,0,1,33.66,2.75,15.66,15.66,0,0,1,9.85,5.73,16.89,16.89,0,0,1,3.86,11v1.25A10.29,10.29,0,0,1,424.41,84a11.08,11.08,0,0,1-9.35,2.24A153.48,153.48,0,0,0,385.13,83q-10.22,0-14.33,2.49A8.18,8.18,0,0,0,366.69,93q0,9.48,14.95,12.47,28.42,4.74,39.77,15t11.35,29.67q0,18.71-14,29.05T378.15,189.5a176,176,0,0,1-36.9-3.74,16.17,16.17,0,0,1-9.85-6.36,18.7,18.7,0,0,1-3.86-11.59v-2a9.21,9.21,0,0,1,4.24-8.1,11.46,11.46,0,0,1,9.47-1.63,125.57,125.57,0,0,0,31.92,4.24q18.45,0,18.45-10.72a9.4,9.4,0,0,0-3.37-7.73Q384.89,139.14,375.66,137.14Z"/><path class="cls-1" d="M486.33,189.5q-17.2,0-28.3-11.1t-11.1-28.8q0-45.37,67.32-45.38h9c1.49,0,2.24-.66,2.24-2V101q0-9.47-4.86-13.71T504.28,83q-15.21,0-36.4,4.74a11.11,11.11,0,0,1-9.35-2.25A10.26,10.26,0,0,1,454.41,77v-.49a18.36,18.36,0,0,1,3.87-11.35,15.17,15.17,0,0,1,9.84-6.11q21.94-4.23,37.9-4.24,32.67,0,46.26,11.72t13.59,38.9v67.32A14.48,14.48,0,0,1,551.65,187h-9.22a14.18,14.18,0,0,1-10.23-4.11,14.4,14.4,0,0,1-4.48-10.1v-2.74a.23.23,0,0,0-.25-.25c-.34,0-.5.09-.5.25Q511.27,189.49,486.33,189.5Zm27.92-61.84q-30.42,0-30.42,18.7,0,6.73,4,10.6t10.73,3.86q12,0,19.44-7.6t7.48-20.32v-3a2,2,0,0,0-2.24-2.24Z"/><path class="cls-1" d="M604,187a13.25,13.25,0,0,1-9.85-4.24,13.83,13.83,0,0,1-4.11-10V14.21a13.86,13.86,0,0,1,4.11-10A13.25,13.25,0,0,1,604,0h12.22A13.23,13.23,0,0,1,626,4.24a13.86,13.86,0,0,1,4.11,10V70.06a.22.22,0,0,0,.25.25.71.71,0,0,0,.5-.25q16.71-15.2,37.15-15.21,23.19,0,36.9,17.46t13.72,49.86q0,31.68-14.21,49.5T668.05,189.5q-23.68,0-39.39-18.45l-.5-.5a.22.22,0,0,0-.25.25v2a14.66,14.66,0,0,1-4.36,10.1,13.75,13.75,0,0,1-10.1,4.11Zm25.44-80.28v30.91q0,8.49,7.47,15.21a25.29,25.29,0,0,0,17.46,6.74,21.38,21.38,0,0,0,18.2-9.23q6.74-9.22,6.73-28.18,0-37.4-24.93-37.4a25.29,25.29,0,0,0-17.46,6.74Q629.41,98.25,629.41,106.72Z"/><path class="cls-1" d="M755.78,32.41a13.64,13.64,0,0,1-10-4.24,13.6,13.6,0,0,1-4.24-10v-4a13.64,13.64,0,0,1,4.24-10,13.64,13.64,0,0,1,10-4.24h14a13.64,13.64,0,0,1,10,4.24,13.64,13.64,0,0,1,4.24,10v4a13.6,13.6,0,0,1-4.24,10,13.64,13.64,0,0,1-10,4.24Zm0,154.59a14.48,14.48,0,0,1-14.22-14.21V71.56a14.48,14.48,0,0,1,14.22-14.21h14A14.49,14.49,0,0,1,784,71.56V172.79A14.49,14.49,0,0,1,769.74,187Z"/></g></g></svg>